<svg width="120" height="120" viewBox="0 0 120 120" fill="none" xmlns="http://www.w3.org/2000/svg">
<g clip-path="url(#clip0_1_1826)">
<path d="M120 44.6688V112.53H28.7493C27.2209 112.53 25.9846 111.292 25.9846 109.766V35.3201C25.9846 33.7917 27.2209 32.5554 28.7493 32.5554H62.2769C63.0084 32.5554 63.711 32.8451 64.2302 33.3642L71.9613 41.0953C72.4804 41.6145 73.1831 41.9041 73.9169 41.9041H117.235C118.761 41.9044 120 43.143 120 44.6688Z" fill="#756F6F"/>
<path d="M75.9526 55.3833C79.6747 55.3833 82.692 52.3659 82.692 48.6438C82.692 44.9217 79.6747 41.9044 75.9526 41.9044C72.2305 41.9044 69.2131 44.9217 69.2131 48.6438C69.2131 52.3659 72.2305 55.3833 75.9526 55.3833Z" fill="#5B5555"/>
<path d="M51.2137 64.5523C52.4306 65.7668 51.5711 67.848 49.8496 67.848H28.5684C27.6967 67.848 26.8347 67.8045 25.9849 67.7224V35.3201C25.9849 33.7917 27.2212 32.5554 28.7496 32.5554H52.776C53.8963 35.4551 54.5121 38.6086 54.5121 41.9044C54.5121 49.0683 51.6074 55.5534 46.9136 60.2496L51.2137 64.5523Z" fill="#5B5555"/>
<path d="M120 44.6688V112.53H110.82V44.6688C110.82 43.1428 109.584 41.9041 108.055 41.9041H117.235C118.761 41.9044 120 43.143 120 44.6688Z" fill="#5B5555"/>
<path d="M91.8043 77.8634L120 112.531H27.2982C26.4662 112.531 25.6787 112.156 25.1537 111.511L0.62473 81.3516C-0.844332 79.5452 0.44098 76.8431 2.76926 76.8431H89.6596C90.4918 76.8431 91.2796 77.2179 91.8043 77.8634Z" fill="#64B9FC"/>
<path d="M120 112.53H108.111L79.917 77.8634C79.3906 77.2186 78.6036 76.842 77.7729 76.842H89.6595C90.4925 76.842 91.2795 77.2186 91.8036 77.8634L120 112.53Z" fill="#31A7FB"/>
<path d="M99.006 104.4H74.6153C73.8613 104.4 73.1507 104.047 72.6939 103.447L66.4431 95.2341C65.8382 94.4393 66.4052 93.2958 67.4038 93.2958H91.7945C92.5485 93.2958 93.2591 93.648 93.7159 94.248L99.9667 102.461C100.572 103.256 100.005 104.4 99.006 104.4Z" fill="#F8F3F1"/>
<path d="M99.0059 104.399H91.1588C92.1584 104.399 92.7259 103.257 92.1198 102.46L85.8688 94.2485C85.4124 93.6473 84.7025 93.2948 83.9492 93.2948H91.794C92.5496 93.2948 93.2595 93.6473 93.7159 94.2485L99.9669 102.46C100.57 103.257 100.006 104.399 99.0059 104.399Z" fill="#EFE2DD"/>
<path d="M59.9998 106.21H48.9204C47.9203 106.21 47.1096 105.399 47.1096 104.399C47.1096 103.399 47.9203 102.588 48.9204 102.588H59.9998C60.9999 102.588 61.8106 103.399 61.8106 104.399C61.8106 105.399 60.9999 106.21 59.9998 106.21Z" fill="#F8F3F1"/>
<path d="M55.9566 100.204H51.2539C50.2538 100.204 49.4431 99.3928 49.4431 98.3927C49.4431 97.3927 50.2538 96.582 51.2539 96.582H55.9566C56.9567 96.582 57.7674 97.3927 57.7674 98.3927C57.7676 99.3928 56.9569 100.204 55.9566 100.204Z" fill="#F8F3F1"/>
<path d="M54.5116 33.4127C54.5116 19.0845 42.8962 7.46906 28.5682 7.46906C14.2533 7.46906 2.62427 19.098 2.62427 33.413C2.6245 47.7412 14.2397 59.3564 28.5679 59.3564H49.8492C51.5697 59.3564 52.4315 57.2761 51.2149 56.0595L46.9129 51.7575C51.6079 47.063 54.5116 40.5769 54.5116 33.4127Z" fill="#31A7FB"/>
<path d="M51.2136 56.0604C52.4305 57.2773 51.571 59.3562 49.8495 59.3562H41.0994C42.8185 59.3562 43.6805 57.2773 42.4634 56.0604L39.7958 53.3913C38.9084 52.5035 38.8522 51.0865 39.6613 50.1267C43.467 45.6127 45.7616 39.7795 45.7616 33.4125C45.7616 20.5772 36.4393 9.91711 24.1953 7.8382C25.3801 7.635 26.5918 7.51406 27.8248 7.47914C42.3338 7.07039 54.2666 18.4577 54.508 32.9705C54.6301 40.309 51.7032 46.9673 46.9133 51.7575L51.2136 56.0604Z" fill="#1C96F9"/>
<path d="M33.6895 33.413L38.5156 28.587C39.93 27.1725 39.93 24.8794 38.5156 23.4652C37.1013 22.0507 34.808 22.0507 33.3938 23.4652L28.5677 28.2912L23.742 23.4649C22.3277 22.0505 20.0344 22.0505 18.6202 23.4649C17.2057 24.8791 17.2057 27.1723 18.6202 28.5867L23.4462 33.4127L18.6202 38.2387C17.2057 39.6532 17.2057 41.9463 18.6202 43.3605C19.3273 44.0679 20.2542 44.4213 21.1812 44.4213C22.1081 44.4213 23.0349 44.0677 23.7422 43.3605L28.5682 38.5345L33.3942 43.3605C34.1016 44.0679 35.0281 44.4213 35.9552 44.4213C36.882 44.4213 37.8089 44.0677 38.5163 43.3605C39.9307 41.9463 39.9307 39.6532 38.5163 38.2387L33.6895 33.413Z" fill="#F8F3F1"/>
<path d="M75.9526 49.6784C79.6747 49.6784 82.692 46.661 82.692 42.9389C82.692 39.2168 79.6747 36.1995 75.9526 36.1995C72.2305 36.1995 69.2131 39.2168 69.2131 42.9389C69.2131 46.661 72.2305 49.6784 75.9526 49.6784Z" fill="#BCEA73"/>
<path d="M82.6915 42.9382C82.6915 46.6617 79.6732 49.68 75.9528 49.68C74.7054 49.68 73.5352 49.3411 72.5342 48.7467C75.1798 48.1369 77.1509 45.7685 77.1509 42.9382C77.1509 40.1109 75.1829 37.7395 72.5372 37.1297C73.5382 36.5384 74.7054 36.1997 75.9528 36.1997C79.6735 36.1995 82.6915 39.2177 82.6915 42.9382Z" fill="#99D53B"/>
<path d="M99.5553 34.8581C102.493 34.8581 104.874 32.477 104.874 29.5397C104.874 26.6024 102.493 24.2213 99.5553 24.2213C96.618 24.2213 94.2368 26.6024 94.2368 29.5397C94.2368 32.477 96.618 34.8581 99.5553 34.8581Z" fill="#BCEA73"/>
<path d="M104.873 29.5392C104.873 32.4776 102.492 34.8593 99.5556 34.8593C98.5712 34.8593 97.6477 34.5919 96.8577 34.1229C98.9455 33.6417 100.501 31.7726 100.501 29.5392C100.501 27.308 98.9478 25.4367 96.86 24.9553C97.6498 24.4887 98.5709 24.2213 99.5553 24.2213C102.492 24.2213 104.873 26.6032 104.873 29.5392Z" fill="#99D53B"/>
<path d="M87.403 19.8187L88.3827 18.8391C89.09 18.1317 89.09 16.9854 88.3827 16.278C87.6756 15.5709 86.529 15.5709 85.8217 16.278L84.842 17.2577L83.8623 16.278C83.1552 15.5707 82.0086 15.5707 81.3013 16.278C80.5939 16.9852 80.5939 18.1317 81.3013 18.8391L82.281 19.8187L81.3013 20.7984C80.5939 21.5058 80.5939 22.6521 81.3013 23.3595C81.6549 23.7131 82.1183 23.8898 82.5817 23.8898C83.045 23.8898 83.5086 23.7129 83.862 23.3595L84.8417 22.3798L85.8214 23.3595C86.1751 23.7131 86.6385 23.8898 87.1018 23.8898C87.5652 23.8898 88.0288 23.7129 88.3822 23.3595C89.0895 22.6523 89.0895 21.5058 88.3822 20.7984L87.403 19.8187Z" fill="#64B9FC"/>
<path d="M13.5585 60.9293C12.8514 60.2222 11.7048 60.2222 10.9975 60.9293L9.29169 62.6351L7.58591 60.9293C6.8788 60.2222 5.73224 60.2222 5.02489 60.9293C4.31755 61.6364 4.31755 62.783 5.02489 63.4903L6.73067 65.1961L5.02489 66.9019C4.31755 67.609 4.31755 68.7555 5.02489 69.4629C5.37856 69.8166 5.84192 69.9933 6.30528 69.9933C6.76864 69.9933 7.23224 69.8163 7.58567 69.4629L9.29146 67.7571L10.9972 69.4629C11.3509 69.8166 11.8143 69.9933 12.2776 69.9933C12.741 69.9933 13.2046 69.8163 13.558 69.4629C14.2654 68.7558 14.2654 67.6092 13.558 66.9019L11.8522 65.1961L13.558 63.4903C14.2656 62.783 14.2656 61.6364 13.5585 60.9293Z" fill="#A8E7EF"/>
</g>
<defs>
<clipPath id="clip0_1_1826">
<rect width="120" height="120" fill="white"/>
</clipPath>
</defs>
</svg>
