<svg width="116" height="32" viewBox="0 0 116 32" fill="none" xmlns="http://www.w3.org/2000/svg">
<g clip-path="url(#clip0_1_1884)">
<path d="M11.5907 22.3258L8.65485 10.6777L5.61357 22.3258H11.5907ZM14.1983 31.9241L12.4824 25.8116H4.71865L3.00044 31.9241H0.046875L7.26257 4.55957H9.94009L17.1566 31.9241H14.199H14.1983Z" fill="white"/>
<path d="M17.1562 4.55957H20.109V16.8529L27.4269 4.55957H31.1032L23.7571 16.7884L32.7562 31.9241H29.1451L21.9737 19.817L20.109 22.9065V31.9241H17.1562V4.55957Z" fill="white"/>
<path d="M35.2712 7.38281H38.2256L35.734 31.9239H32.7578L35.2712 7.38281Z" fill="white"/>
<path d="M38.9984 0L38.2266 7.38305H41.3355L42.1105 0H38.9984Z" fill="white"/>
<path d="M45.8432 27.4572C46.4885 26.7948 46.7203 25.8702 46.7453 24.6841V4.56201H49.6722V24.6841C49.6489 26.8709 48.9987 28.5824 47.8519 29.8234C46.7058 31.0665 45.0882 31.9237 42.863 31.9237C41.4337 31.9237 40.1622 31.382 39.1859 30.7767C38.2089 30.1685 37.4258 29.299 36.8359 28.1642L39.4032 26.5743C41.2212 29.3787 44.6995 28.5377 45.8432 27.4581" fill="white"/>
<path d="M72.8026 20.2311C70.9733 20.2311 69.4844 18.4739 69.4844 16.3128V14.7676H71.4755V16.3128C71.4755 17.1766 72.071 17.8799 72.8026 17.8799C73.5341 17.8799 74.1296 17.1766 74.1296 16.3128V15.2808C74.1296 14.2449 73.1204 13.7356 72.5193 13.5246C70.6192 12.8584 69.4844 11.3598 69.4844 9.51517V8.48312C69.4844 6.32304 70.9733 4.56494 72.8026 4.56494C74.6318 4.56494 76.1206 6.32304 76.1206 8.48312V10.0283H74.1296V8.48312C74.1296 7.61928 73.5341 6.91604 72.8026 6.91604C72.071 6.91604 71.4755 7.61928 71.4755 8.48312V9.51517C71.4755 10.551 72.4846 11.0604 73.0858 11.2704C74.986 11.9375 76.1206 13.4362 76.1206 15.2798V16.3119C76.1206 18.4719 74.6318 20.2301 72.8026 20.2301V20.2311Z" fill="white"/>
<path d="M80.7635 20.2329C78.9342 20.2329 77.4453 18.4757 77.4453 16.3147V8.48312C77.4453 6.32304 78.9342 4.56494 80.7635 4.56494C82.5928 4.56494 84.0816 6.32304 84.0816 8.48312V16.3147C84.0816 18.4749 82.5928 20.2329 80.7635 20.2329ZM80.7635 6.91698C80.032 6.91698 79.4364 7.62023 79.4364 8.48407V16.3157C79.4364 17.1796 80.032 17.8828 80.7635 17.8828C81.495 17.8828 82.0906 17.1796 82.0906 16.3157V8.48407C82.0906 7.62023 81.495 6.91698 80.7635 6.91698Z" fill="white"/>
<path d="M88.7322 20.2329C86.903 20.2329 85.4141 18.4758 85.4141 16.3148V4.56689H87.4052V16.3157C87.4052 17.1796 88.0007 17.8828 88.7322 17.8828C89.4638 17.8828 90.0593 17.1796 90.0593 16.3157V4.56689H92.0503V16.3157C92.0503 18.4758 90.5615 20.2339 88.7322 20.2339V20.2329Z" fill="white"/>
<path d="M58.7381 20.2347H60.8539L58.7389 12.9011C59.6185 12.196 60.1988 11.0052 60.1988 9.65765V8.484C60.1988 6.32391 58.71 4.56582 56.8807 4.56582H55.5608V4.56201H53.5625V4.56582V6.91692V11.2247V13.5758V20.2347H55.5608V13.5758H56.8179L58.7381 20.2347ZM55.5608 6.91692H56.8807C57.6122 6.91692 58.2078 7.62015 58.2078 8.484V9.65765C58.2078 10.5215 57.6122 11.2247 56.8807 11.2247H55.5608V6.91692Z" fill="white"/>
<path d="M98.5506 20.2347H100.666L98.5513 12.9011C99.4309 12.196 100.011 11.0052 100.011 9.65765V8.484C100.011 6.32391 98.5224 4.56582 96.6931 4.56582H95.3733V4.56201H93.375V4.56582V6.91692V11.2247V13.5758V20.2347H95.3733V13.5758H96.6303L98.5506 20.2347ZM95.3733 6.91692H96.6931C97.4247 6.91692 98.0202 7.62015 98.0202 8.484V9.65765C98.0202 10.5215 97.4247 11.2247 96.6931 11.2247H95.3733V6.91692Z" fill="white"/>
<path d="M68.1597 6.92167V4.56201H63.5217H61.5234V6.92167V11.2199V13.5796V17.8779V20.2347V20.2375H68.1597V17.8779H63.5217V13.5796H68.1597V11.2199H63.5217V6.92167H68.1597Z" fill="white"/>
<path d="M115.942 6.92167V4.56201H111.304H109.305V6.92167V11.2199V13.5796V17.8779V20.2347V20.2375H115.942V17.8779H111.304V13.5796H115.942V11.2199H111.304V6.92167H115.942Z" fill="white"/>
<path d="M104.662 20.2329C102.833 20.2329 101.344 18.4757 101.344 16.3147V8.48312C101.344 6.32304 102.833 4.56494 104.662 4.56494C106.491 4.56494 107.98 6.32304 107.98 8.48312V10.0474H105.989V8.48312C105.989 7.61928 105.393 6.91604 104.662 6.91604C103.93 6.91604 103.335 7.61928 103.335 8.48312V16.3147C103.335 17.1786 103.93 17.8818 104.662 17.8818C105.393 17.8818 105.989 17.1786 105.989 16.3147V14.7495H107.98V16.3147C107.98 18.4748 106.491 20.2329 104.662 20.2329Z" fill="white"/>
<path d="M102.53 23.255C102.537 23.2787 102.54 23.2997 102.54 23.3196V24.1075C102.479 24.4077 102.415 24.9028 102.346 25.5937C102.333 25.7096 102.278 26.0442 102.18 26.5963C102.185 26.6534 102.188 26.7398 102.19 26.8558C102.158 27.0562 102.121 27.3594 102.08 27.7652C102.076 27.9163 102.074 28.0551 102.074 28.1795C102.074 28.5236 102.087 28.7659 102.112 28.9065C102.099 28.9388 102.089 28.9825 102.08 29.0368C102.121 29.1013 102.142 29.1831 102.142 29.28C102.142 29.4017 102.118 29.5109 102.072 29.6069C102.025 29.7029 101.97 29.7514 101.905 29.7514C101.873 29.7514 101.819 29.7143 101.744 29.6392C101.669 29.5652 101.62 29.4977 101.599 29.4378C101.594 29.4111 101.582 29.2363 101.565 28.9142C101.536 28.86 101.522 28.8248 101.522 28.8086V27.826L101.907 24.0742C101.937 23.8955 101.953 23.7871 101.955 23.7492V23.7454C101.955 23.7159 101.949 23.6398 101.937 23.5182L101.918 23.3196L101.939 23.255H99.5544C99.5769 23.2863 99.597 23.3234 99.6124 23.3652C99.6462 23.4564 99.6317 23.5372 99.6156 23.77C99.5841 23.8879 99.4731 25.4407 99.457 25.818C99.5761 25.8703 99.6453 25.895 99.6639 25.895L99.7902 25.8627C99.898 25.8351 99.9745 25.8208 100.02 25.819C100.135 25.8152 100.356 25.8236 100.439 25.8532L100.563 25.8969C100.756 25.8903 100.855 25.9605 100.858 26.1059C100.861 26.1991 100.839 26.2694 100.794 26.3188C100.749 26.3682 100.662 26.4148 100.534 26.4585C100.424 26.4993 100.354 26.5412 100.322 26.5849C100.189 26.6182 100.119 26.6353 100.111 26.6353C99.981 26.6391 99.8658 26.5859 99.6115 26.6552C99.5319 26.6733 99.4852 26.7208 99.4707 26.7949C99.4425 26.947 99.4151 27.1836 99.3861 27.5058C99.3894 27.7785 99.391 28.8771 99.3491 29.4805C99.2985 29.6069 99.1955 29.7638 99.1962 29.7723C99.0232 29.7618 98.9154 29.7201 98.8728 29.6478C98.8526 29.6117 98.8413 29.5109 98.8374 29.3466C98.8325 29.145 98.8333 27.8688 98.8824 26.8386C98.8413 26.7816 98.8036 26.754 98.7673 26.755C98.7625 26.755 98.7576 26.755 98.7528 26.755C98.7077 26.7674 98.6716 26.774 98.645 26.774C98.6273 26.774 98.6144 26.7721 98.6047 26.7674C98.4454 26.7598 98.2885 26.754 98.1324 26.7512C97.936 26.7017 97.8346 26.5412 97.8281 26.2675C97.8257 26.1743 97.845 26.0907 97.8861 26.0147C97.9271 25.9387 97.9738 25.9007 98.0269 25.8988C98.0317 25.8988 98.076 25.9045 98.1605 25.9159C98.245 25.9272 98.2901 25.934 98.2965 25.933C98.2998 25.933 98.3359 25.9264 98.406 25.913C98.476 25.9007 98.513 25.894 98.5178 25.8931C98.5226 25.8931 98.5428 25.9045 98.5774 25.9272C98.5935 25.9368 98.6056 25.9434 98.6144 25.9492C98.6192 25.9472 98.6305 25.9444 98.6507 25.9416C98.7319 25.9282 98.7746 25.9216 98.7778 25.9216C98.8583 25.9188 98.9066 25.8494 98.9234 25.7134C98.9379 25.6042 99.0071 23.5496 99.078 23.3244C99.0869 23.2977 99.0973 23.274 99.1094 23.2521H88.0436V23.9079C87.9832 24.2081 87.9188 24.7033 87.8512 25.3942C87.8392 25.51 87.7836 25.8446 87.6854 26.3967C87.6911 26.4538 87.6943 26.5402 87.6959 26.6562C87.6637 26.8567 87.6274 27.1598 87.5864 27.5656C87.5824 27.7167 87.5808 27.8555 87.5808 27.98C87.5808 28.324 87.5929 28.5663 87.6178 28.707C87.6058 28.7393 87.5945 28.783 87.5856 28.8372C87.6267 28.9018 87.6476 28.9835 87.6476 29.0805C87.6476 29.2021 87.6242 29.3114 87.5775 29.4073C87.5309 29.5033 87.4761 29.5518 87.4119 29.5518C87.3797 29.5518 87.3265 29.5147 87.2516 29.4396C87.1769 29.3656 87.1286 29.2981 87.1076 29.2382C87.102 29.2116 87.0907 29.0368 87.073 28.7146C87.044 28.6604 87.0304 28.6252 87.0304 28.6091V27.6265L87.4126 23.8746C87.4432 23.6959 87.4593 23.5876 87.4609 23.5496V23.5458C87.4609 23.5163 87.4545 23.4402 87.4424 23.3186L87.4359 23.2512H78.2284C78.2276 24.2566 78.2172 24.9104 78.1979 25.2108C78.2083 25.3998 78.2131 25.6356 78.2131 25.9168C78.2131 26.2713 78.2059 26.6923 78.1914 27.1798C78.1576 27.2692 78.1093 27.406 78.0473 27.5904L77.9628 27.5533H77.9652C77.9652 27.5533 77.8268 27.5277 77.5499 27.484L77.1348 27.4193C76.9568 27.4193 76.7211 27.4678 76.4265 27.5656C76.1053 27.6711 75.9211 27.7804 75.8744 27.8944C75.8696 27.9002 75.8277 27.9305 75.748 27.9876C75.6684 28.0493 75.6281 28.1282 75.6281 28.2232C75.6281 28.2585 75.6523 28.325 75.7013 28.4218C75.7505 28.517 75.7939 28.5844 75.8326 28.6252C75.9629 28.7583 76.1118 28.8238 76.2808 28.8238C76.3742 28.8238 76.6647 28.7545 77.1532 28.6167L77.8856 28.4058H77.9459C77.9636 28.4058 77.9725 28.4333 77.9725 28.4865C77.9725 28.5397 77.9556 28.6196 77.921 28.7222C77.8872 28.822 77.8541 28.8865 77.8236 28.9132C77.7527 28.9759 77.5016 29.108 77.0711 29.3114C76.7372 29.4682 76.4941 29.547 76.3436 29.547C76.3316 29.55 76.3098 29.5528 76.2768 29.5556C76.2414 29.5556 76.1858 29.5584 76.1102 29.5642L75.8664 29.5765L75.7601 29.491C75.7231 29.4881 75.6668 29.4616 75.5919 29.4093C75.4865 29.2715 75.406 29.126 75.3497 28.9749C75.3111 28.8695 75.2717 28.7098 75.2298 28.496C75.1944 28.304 75.1767 28.1805 75.1767 28.1263C75.1767 27.9914 75.2202 27.8289 75.3078 27.6389C75.4495 27.3243 75.711 27.0971 76.0917 26.9564C76.115 26.9346 76.1432 26.9081 76.1762 26.8748C76.3299 26.8339 76.49 26.7816 76.6558 26.7161C76.771 26.6676 76.944 26.6428 77.175 26.6428C77.5637 26.6428 77.7761 26.6391 77.8115 26.6305C77.822 26.1192 77.8502 25.5034 77.896 24.783C77.8735 24.6672 77.8614 24.4904 77.8582 24.2547C77.8638 24.211 77.867 24.1017 77.867 23.9259C77.867 23.8147 77.8654 23.6779 77.8622 23.5163V23.37C77.8622 23.3282 77.8622 23.2883 77.8622 23.2502H58.1281C58.1507 23.2815 58.1707 23.3186 58.1861 23.3605C58.2199 23.4517 58.2054 23.5324 58.1893 23.7653C58.1579 23.8831 58.0468 25.436 58.0307 25.8132C58.1498 25.8655 58.219 25.8902 58.2376 25.8902L58.3639 25.8579C58.4717 25.8304 58.5482 25.8161 58.5941 25.8142C58.7091 25.8104 58.9296 25.819 59.0126 25.8484L59.1365 25.8921C59.3297 25.8855 59.4286 25.9558 59.4318 26.1012C59.4343 26.1943 59.4125 26.2646 59.3674 26.3141C59.3224 26.3635 59.2354 26.4101 59.1075 26.4538C58.9981 26.4947 58.928 26.5364 58.8958 26.5801C58.7631 26.6135 58.6923 26.6305 58.685 26.6305C58.5547 26.6343 58.4395 26.5811 58.1852 26.6504C58.1056 26.6686 58.0589 26.7161 58.0444 26.7902C58.0162 26.9422 57.9889 27.1788 57.9599 27.501C57.9631 27.7738 57.9647 28.8723 57.9229 29.4758C57.8722 29.6021 57.7692 29.759 57.7699 29.7676C57.597 29.757 57.4891 29.7153 57.4464 29.643C57.4263 29.6069 57.4151 29.5063 57.411 29.3418C57.4062 29.1404 57.407 27.8641 57.4561 26.8339C57.4151 26.7769 57.3772 26.7493 57.341 26.7502C57.3362 26.7502 57.3314 26.7502 57.3265 26.7502C57.2815 26.7626 57.2452 26.7692 57.2187 26.7692C57.201 26.7692 57.1881 26.7674 57.1785 26.7626C57.0191 26.755 56.8622 26.7493 56.7061 26.7464C56.5097 26.6971 56.4083 26.5364 56.4019 26.2628C56.3994 26.1696 56.4187 26.0859 56.4598 26.01C56.5008 25.934 56.5475 25.8959 56.6006 25.894C56.6054 25.894 56.6498 25.8997 56.7342 25.9111C56.8188 25.9226 56.8638 25.9292 56.8703 25.9282C56.8735 25.9282 56.9097 25.9216 56.9796 25.9083C57.0497 25.8959 57.0867 25.8893 57.0915 25.8883C57.0964 25.8883 57.1164 25.8997 57.1511 25.9226C57.1672 25.932 57.1792 25.9387 57.1881 25.9444C57.1929 25.9425 57.2042 25.9396 57.2243 25.9368C57.3056 25.9234 57.3482 25.9168 57.3514 25.9168C57.4319 25.914 57.4802 25.8446 57.4972 25.7087C57.5116 25.5994 57.5809 23.5448 57.6517 23.3196C57.6605 23.293 57.671 23.2693 57.683 23.2474H53.5625V31.9162H115.943V23.2474H102.534L102.53 23.255ZM62.0312 28.4751C61.9411 28.6727 61.7697 28.8895 61.5163 29.1251C61.3376 29.2905 61.1372 29.4207 60.915 29.5147C60.8587 29.5394 60.7943 29.568 60.7219 29.6003C60.5368 29.6003 60.3284 29.4863 60.0958 29.2591C59.8358 29.0073 59.687 28.7146 59.65 28.382C59.6443 28.3497 59.6314 28.2822 59.6121 28.1786C59.5872 28.0541 59.5743 27.9838 59.5743 27.9676C59.5743 27.9163 59.5912 27.789 59.625 27.5856C59.6588 27.3822 59.687 27.2482 59.7095 27.1836C59.7376 27.0914 59.8061 26.9993 59.9156 26.9081L60.1329 26.7208C60.2865 26.5583 60.4676 26.3996 60.6768 26.2456L60.8458 26.2257C60.8667 26.2067 60.895 26.1811 60.9304 26.1487C60.9392 26.1487 60.9875 26.1402 61.0744 26.124C61.1613 26.1078 61.208 26.0993 61.2144 26.0993C61.6538 26.0993 61.9379 26.4414 62.0667 27.1266C62.1303 27.4592 62.1616 27.6465 62.1616 27.6872C62.1616 28.0152 62.1182 28.2775 62.0305 28.4751H62.0312ZM67.3501 26.6153C67.3365 26.6724 67.3123 26.7484 67.2769 26.8424C67.2294 26.9071 67.1714 27.0031 67.1038 27.1304C67.0845 27.2036 67.0467 27.3129 66.9904 27.4592C66.9446 27.5267 66.8914 27.6132 66.8303 27.7186C66.7811 27.8545 66.7369 27.9762 66.6974 28.0845C66.6645 28.1653 66.555 28.382 66.3667 28.7346C66.1389 29.1565 65.9933 29.3684 65.9296 29.3684C65.7953 29.3684 65.5539 28.9626 65.2062 28.1501L65.0243 27.7281C65.0098 27.7281 64.9325 27.8469 64.7934 28.0855C64.6154 28.3858 64.5036 28.5683 64.4561 28.6338C64.073 29.1641 63.8517 29.4302 63.7922 29.4302C63.7036 29.4302 63.6312 29.3732 63.5773 29.2591C63.4783 29.0558 63.3761 28.5416 63.2707 27.7158C63.1837 27.042 63.1395 26.6686 63.1395 26.5953C63.1395 26.5659 63.1757 26.4462 63.2481 26.238C63.2924 26.2057 63.3206 26.1895 63.3327 26.1895C63.3737 26.1895 63.4252 26.2494 63.4856 26.3682C63.5459 26.4871 63.5806 26.5944 63.5878 26.6885C63.5878 26.737 63.5918 26.8129 63.599 26.9157C63.6521 27.1893 63.6892 27.4107 63.7101 27.5818C63.7133 27.7225 63.7487 27.9363 63.8163 28.2232H63.8718C63.9564 28.2232 64.1454 27.9609 64.44 27.4355L64.9679 26.4899C64.9946 26.4442 65.038 26.4205 65.0992 26.4205C65.1981 26.4205 65.2899 26.5859 65.3744 26.9157C65.4323 27.138 65.4702 27.272 65.4895 27.3176C65.5144 27.4012 65.5643 27.5628 65.6383 27.8014C65.7268 28.0826 65.7985 28.2232 65.8532 28.2232C65.8942 28.2232 66.0062 28.0503 66.188 27.7034C66.2467 27.5894 66.3603 27.3746 66.5277 27.0582C66.5928 26.9365 66.8664 26.5222 67.3485 25.8161C67.3855 25.8104 67.4523 25.7829 67.5481 25.7306C67.5956 25.8797 67.6189 26.0109 67.6189 26.124C67.6189 26.237 67.5288 26.3957 67.3485 26.6153H67.3501ZM70.599 29.3636C70.562 29.4482 70.5193 29.4901 70.4726 29.4901C70.4051 29.4701 70.1999 29.2582 69.8772 28.9807C69.6921 28.823 69.6116 28.6281 69.5939 28.6167C69.5215 28.6167 69.4079 28.839 69.2759 28.9342C69.1005 29.0605 68.9991 29.1318 68.9717 29.1488C68.8558 29.2107 68.7399 29.241 68.6258 29.241C68.48 29.241 68.3014 29.0833 68.0898 28.7697C68.0173 28.6015 67.9803 28.4513 67.9803 28.3192C67.9803 28.1425 68.0157 27.9068 68.0865 27.6113C68.1018 27.5409 68.1896 27.3898 68.274 27.3253L68.4398 26.9489C68.814 26.5783 69.1158 26.3701 69.4265 26.3701C69.515 26.3701 69.6301 26.4119 69.7726 26.4965C69.8144 26.5222 69.8651 26.6191 69.9262 26.7873C69.989 26.9556 70.154 27.0933 70.154 27.175C70.154 27.3157 70.1589 27.6351 70.0276 27.8289C69.8241 27.5485 69.6132 27.2349 69.3669 27.2378C69.2389 27.2397 69.1069 27.29 68.9717 27.3936C68.802 27.5229 68.6651 28.0256 68.563 28.1795C68.575 28.2641 68.6619 28.3924 68.773 28.3924C68.7641 28.3924 68.9283 28.3088 69.1327 28.1928C69.4015 28.0399 69.573 27.8308 69.7033 27.8603C69.8522 27.8935 69.874 27.9781 70.0961 28.2793C70.3351 28.6053 70.4896 28.8713 70.5918 28.956C70.6336 29.0149 70.6538 29.0586 70.6538 29.0861C70.6538 29.1869 70.6352 29.28 70.5974 29.3646L70.599 29.3636ZM74.4692 27.2644L74.429 27.195C74.3993 27.2416 74.3719 27.2644 74.3469 27.2644C74.3324 27.2644 74.1626 27.2369 73.8391 27.1826L73.3313 27.0971C72.8887 27.0971 72.578 27.3594 72.3994 27.885C72.355 28.0152 72.314 28.2423 72.277 28.5673C72.2665 28.5835 72.2497 28.6148 72.2263 28.6604C72.2263 28.842 72.2078 29.0843 72.1708 29.3874C72.1057 29.434 72.038 29.4568 71.9664 29.4568C71.8054 29.4568 71.7242 29.2724 71.7242 28.9047C71.729 28.8476 71.7394 28.6566 71.7571 28.3316C71.778 27.9525 71.7797 27.3395 71.7886 27.1475C71.8408 26.7037 71.9036 26.6618 71.9696 26.6618C72.1193 26.6486 72.1458 27.06 72.1563 27.06C72.1611 27.06 72.2182 26.9802 72.3293 26.8206C72.446 26.7047 72.5748 26.5849 72.7156 26.4632C72.8517 26.3444 73.0118 26.2846 73.1953 26.2846C73.2484 26.2846 73.642 26.3987 74.3759 26.6258C74.3807 26.6391 74.3928 26.6638 74.4137 26.6989L74.6447 26.7474C74.6447 26.9289 74.6527 27.0306 74.6688 27.0524C74.664 27.0582 74.598 27.1285 74.4692 27.2634V27.2644ZM80.1808 27.2283C80.2299 27.2416 80.333 27.291 80.4891 27.3746C80.5277 27.4022 80.6082 27.4545 80.7313 27.5333L80.7642 27.5533C80.7876 27.5666 80.8592 27.6207 80.9792 27.7158C81.0532 27.7728 81.1192 27.8679 81.1772 28C81.2004 28.0484 81.2206 28.1491 81.2367 28.3002C81.2367 28.306 81.2455 28.3354 81.2641 28.3896C81.2825 28.4437 81.2922 28.4779 81.2922 28.4913C81.2922 28.5378 81.2632 28.6015 81.2053 28.6841C81.1473 28.7669 81.091 28.823 81.0371 28.8524C80.9365 28.9094 80.7426 29.0187 80.456 29.1812C80.1301 29.3627 79.8878 29.453 79.7285 29.453C79.7237 29.453 79.6931 29.4426 79.6351 29.4207C79.5772 29.3989 79.5475 29.3883 79.5442 29.3883C79.5378 29.3883 79.4838 29.4102 79.3801 29.453C79.3567 29.453 79.3245 29.4017 79.2851 29.2991C79.244 29.2011 79.2231 29.127 79.2231 29.0757C79.2231 29.0596 79.2456 28.9959 79.2915 28.8847L79.9724 28.6528C80.2637 28.5549 80.4625 28.4485 80.5696 28.3316C80.5696 28.3154 80.568 28.2993 80.5655 28.2831C80.5148 28.2128 80.3555 28.076 80.0858 27.8735C79.8034 27.6597 79.6408 27.5295 79.5974 27.484C79.5442 27.4516 79.4597 27.366 79.3447 27.2283C79.3125 27.1712 79.2955 27.0534 79.2955 26.8748C79.2955 26.8881 79.2939 26.8947 79.2907 26.8947C79.2875 26.8947 79.2826 26.8719 79.2754 26.8253C79.2722 26.8091 79.2706 26.793 79.2706 26.7769C79.2706 26.6628 79.3414 26.5564 79.4838 26.4566C79.6537 26.335 79.908 26.221 80.2452 26.1136C80.5823 26.0071 80.8601 25.9529 81.0774 25.9529C81.1369 25.9529 81.1747 25.971 81.1924 26.0062C81.2809 26.1849 81.326 26.315 81.326 26.3957C81.326 26.5498 81.297 26.6514 81.2391 26.6999C81.1884 26.7246 80.9654 26.7759 80.5687 26.8538C80.4931 26.9109 80.4512 26.9394 80.4424 26.9394C80.4376 26.9394 80.4255 26.9337 80.4045 26.9233C80.3813 26.9127 80.3668 26.9071 80.3627 26.9071C80.2815 26.9071 80.1865 26.9556 80.0786 27.0534C80.0996 27.1237 80.1334 27.1817 80.1808 27.2283ZM89.3803 28.9256C89.3803 28.974 89.3585 29.1204 89.3167 29.3636L89.2419 29.3883C89.2419 29.3883 89.2362 29.3921 89.2306 29.3921C89.192 29.3921 89.1083 29.3589 88.9795 29.2905C88.9811 29.2829 88.9827 29.2734 88.9827 29.262C88.9827 29.2049 88.9618 29.1308 88.9192 29.0386C88.854 28.9009 88.817 28.8115 88.8098 28.7707C88.8082 28.7631 88.8065 28.745 88.8065 28.7184C88.8065 28.6348 88.8146 28.4665 88.8298 28.2148C88.8604 27.7034 88.9047 27.2435 88.9627 26.8339C89.0149 26.736 89.0793 26.6875 89.1557 26.6875C89.2403 26.6875 89.3031 26.7778 89.3433 26.9594C89.3489 26.9916 89.3618 27.6445 89.3811 28.916V28.9246L89.3803 28.9256ZM89.3707 25.9434C89.1357 25.8674 89.0182 25.7553 89.0182 25.606C89.0182 25.4569 89.0657 25.2972 89.1605 25.111C89.2104 25.1052 89.3135 25.091 89.4705 25.0663C89.5436 25.2421 89.5807 25.4104 89.5807 25.5699C89.5807 25.6374 89.5107 25.7619 89.3707 25.9434ZM94.815 29.778C94.7595 29.7913 94.7297 29.7979 94.7249 29.7979C94.6653 29.7979 94.5993 29.7209 94.5253 29.566C94.5269 29.5576 94.5277 29.55 94.5277 29.5414C94.5277 29.5062 94.5221 29.4586 94.51 29.3989C94.4359 29.166 94.3941 28.6528 94.3837 27.8593C94.3748 27.8345 94.3603 27.8052 94.3393 27.77C94.1558 27.7832 93.9185 27.999 93.6271 28.4152L92.9391 29.3893C92.8988 29.4464 92.8377 29.4748 92.7547 29.4748C92.5673 29.4748 92.4659 29.3474 92.4506 29.0937C92.449 29.0833 92.4481 29.0653 92.4481 29.0406C92.4481 28.9588 92.453 28.7953 92.461 28.5492C92.4732 28.2375 92.4787 27.9743 92.4787 27.7576C92.4787 27.5247 92.4714 27.3291 92.4562 27.1694C92.4401 27.1095 92.412 27.08 92.3717 27.08C92.3049 27.08 92.1761 27.2207 91.9854 27.502C91.9266 27.5856 91.8164 27.7538 91.6546 28.0056C91.5999 28.1036 91.4945 28.2898 91.3391 28.5663C91.142 28.9104 91.0011 29.0823 90.915 29.0823C90.8619 29.0823 90.8031 29.0025 90.7396 28.8428C90.6849 28.7022 90.6575 28.6129 90.6575 28.5749C90.6575 28.3877 90.6816 28.0912 90.7308 27.6854C90.7959 27.1522 90.8716 26.8852 90.9569 26.8852C91.0422 26.8852 91.1025 26.9584 91.1452 27.1047L91.2474 27.4459C91.3867 27.2587 91.5524 27.0411 91.7447 26.7921C92.0554 26.3939 92.2807 26.1953 92.4216 26.1953C92.5222 26.1953 92.634 26.3264 92.7563 26.5887C92.8554 26.8025 92.9085 26.9394 92.9141 26.9993C92.9455 27.3185 92.9608 27.6236 92.9608 27.9125V28.0427C92.9713 28.0561 92.9841 28.0636 93.0002 28.0636C93.055 28.0636 93.1322 27.9819 93.2312 27.8203C93.2932 27.7471 93.5161 27.4944 93.8992 27.061C94.0867 26.9013 94.275 26.8215 94.4625 26.8215H94.5293C94.5559 26.9195 94.5961 26.9897 94.6492 27.0325C94.7128 27.1704 94.7828 27.3774 94.8601 27.654C94.8705 27.7728 94.8753 27.9182 94.8753 28.0883C94.8753 28.2585 94.8698 28.4551 94.8601 28.6765C94.8569 28.7174 94.8553 28.7631 94.8553 28.8144C94.8553 28.9303 94.8609 29.0662 94.873 29.2202C94.8939 29.4881 94.9043 29.6668 94.9043 29.7562C94.8987 29.7562 94.8673 29.7628 94.8126 29.7761L94.815 29.778ZM96.5726 28.9256C96.5726 28.974 96.551 29.1204 96.5091 29.3636L96.4342 29.3883C96.4342 29.3883 96.4286 29.3921 96.4229 29.3921C96.3843 29.3921 96.3006 29.3589 96.1718 29.2905C96.1735 29.2829 96.1751 29.2734 96.1751 29.262C96.1751 29.2049 96.1541 29.1308 96.1115 29.0386C96.0463 28.9009 96.0093 28.8115 96.0021 28.7707C96.0005 28.7631 95.9989 28.745 95.9989 28.7184C95.9989 28.6348 96.0069 28.4665 96.0221 28.2148C96.0527 27.7034 96.097 27.2435 96.155 26.8339C96.2073 26.736 96.2716 26.6875 96.3482 26.6875C96.4326 26.6875 96.4954 26.7778 96.5356 26.9594C96.5413 26.9916 96.5542 27.6445 96.5735 28.916V28.9246L96.5726 28.9256ZM96.5671 25.9434C96.3183 25.8674 96.1944 25.7553 96.1944 25.606C96.1944 25.4569 96.2443 25.2972 96.3449 25.111C96.3972 25.1052 96.5066 25.091 96.6724 25.0663C96.7506 25.2421 96.7892 25.4104 96.7892 25.5699C96.7892 25.6374 96.7151 25.7619 96.5671 25.9434ZM106.019 27.6635C106.006 27.9381 105.972 28.1006 105.918 28.1511C105.833 28.1511 105.648 28.1843 105.363 28.2517L104.938 28.3525H104.941C104.941 28.3582 104.867 28.3886 104.719 28.4447C104.702 28.419 104.658 28.4066 104.589 28.4066C104.569 28.4428 104.557 28.4637 104.554 28.4693C104.554 28.5483 104.719 28.6699 105.052 28.8352C105.143 28.8438 105.247 28.859 105.363 28.8819C105.558 28.9236 105.656 29.0111 105.656 29.1422C105.656 29.1783 105.596 29.2516 105.474 29.3608C105.47 29.3694 105.437 29.4254 105.378 29.529C105.268 29.548 105.212 29.5604 105.21 29.567C105.212 29.567 105.214 29.567 105.214 29.567H105.21C105.191 29.5652 105.113 29.5556 104.973 29.5376L104.725 29.5043C104.673 29.5043 104.588 29.4548 104.47 29.357C104.445 29.3342 104.377 29.2715 104.265 29.1679C104.131 29.0843 104.01 28.9265 103.9 28.6956C103.791 28.4647 103.736 28.2537 103.736 28.0636C103.736 27.8279 103.752 27.655 103.785 27.5429C104.019 26.7217 104.496 26.3122 105.214 26.3122C105.447 26.3122 105.622 26.4072 105.738 26.5983C105.828 26.7436 105.919 26.9241 106.006 27.1399C106.018 27.2045 106.023 27.2986 106.023 27.4212C106.023 27.4916 106.021 27.5723 106.018 27.6645L106.019 27.6635ZM108.35 27.2283C108.399 27.2416 108.503 27.291 108.658 27.3746C108.697 27.4022 108.777 27.4545 108.901 27.5333L108.934 27.5533C108.956 27.5666 109.028 27.6207 109.148 27.7158C109.223 27.7728 109.288 27.8679 109.346 28C109.37 28.0484 109.39 28.1491 109.406 28.3002C109.406 28.306 109.415 28.3354 109.433 28.3896C109.451 28.4437 109.461 28.4779 109.461 28.4913C109.461 28.5378 109.433 28.6015 109.375 28.6841C109.317 28.7669 109.26 28.823 109.206 28.8524C109.106 28.9094 108.911 29.0187 108.625 29.1812C108.3 29.3627 108.057 29.453 107.897 29.453C107.893 29.453 107.862 29.4426 107.804 29.4207C107.746 29.3989 107.717 29.3883 107.714 29.3883C107.707 29.3883 107.653 29.4102 107.55 29.453C107.526 29.453 107.494 29.4017 107.454 29.2991C107.413 29.2011 107.392 29.127 107.392 29.0757C107.392 29.0596 107.414 28.9959 107.461 28.8847L108.142 28.6528C108.433 28.5549 108.631 28.4485 108.739 28.3316C108.739 28.3154 108.738 28.2993 108.734 28.2831C108.684 28.2128 108.525 28.076 108.255 27.8735C107.972 27.6597 107.81 27.5295 107.766 27.484C107.714 27.4516 107.629 27.366 107.514 27.2283C107.482 27.1712 107.465 27.0534 107.465 26.8748C107.465 26.8881 107.463 26.8947 107.459 26.8947C107.456 26.8947 107.452 26.8719 107.444 26.8253C107.441 26.8091 107.44 26.793 107.44 26.7769C107.44 26.6628 107.511 26.5564 107.653 26.4566C107.823 26.335 108.078 26.221 108.415 26.1136C108.751 26.0071 109.029 25.9529 109.246 25.9529C109.306 25.9529 109.344 25.971 109.362 26.0062C109.45 26.1849 109.495 26.315 109.495 26.3957C109.495 26.5498 109.466 26.6514 109.408 26.6999C109.358 26.7246 109.135 26.7759 108.738 26.8538C108.662 26.9109 108.621 26.9394 108.612 26.9394C108.607 26.9394 108.595 26.9337 108.573 26.9233C108.551 26.9127 108.536 26.9071 108.531 26.9071C108.451 26.9071 108.355 26.9556 108.248 27.0534C108.269 27.1237 108.303 27.1817 108.35 27.2283ZM111.722 27.2283C111.771 27.2416 111.874 27.291 112.03 27.3746C112.068 27.4022 112.149 27.4545 112.272 27.5333L112.305 27.5533C112.329 27.5666 112.4 27.6207 112.52 27.7158C112.594 27.7728 112.661 27.8679 112.719 28C112.741 28.0484 112.762 28.1491 112.778 28.3002C112.778 28.306 112.786 28.3354 112.806 28.3896C112.824 28.4437 112.833 28.4779 112.833 28.4913C112.833 28.5378 112.804 28.6015 112.747 28.6841C112.689 28.7669 112.632 28.823 112.577 28.8524C112.477 28.9094 112.283 29.0187 111.996 29.1812C111.67 29.3627 111.428 29.453 111.269 29.453C111.264 29.453 111.233 29.4426 111.176 29.4207C111.118 29.3989 111.088 29.3883 111.084 29.3883C111.078 29.3883 111.024 29.4102 110.92 29.453C110.897 29.453 110.864 29.4017 110.826 29.2991C110.784 29.2011 110.763 29.127 110.763 29.0757C110.763 29.0596 110.786 28.9959 110.832 28.8847L111.513 28.6528C111.804 28.5549 112.003 28.4485 112.11 28.3316C112.11 28.3154 112.108 28.2993 112.106 28.2831C112.055 28.2128 111.896 28.076 111.626 27.8735C111.344 27.6597 111.181 27.5295 111.138 27.484C111.084 27.4516 111 27.366 110.885 27.2283C110.853 27.1712 110.835 27.0534 110.835 26.8748C110.835 26.8881 110.834 26.8947 110.831 26.8947C110.828 26.8947 110.822 26.8719 110.816 26.8253C110.813 26.8091 110.811 26.793 110.811 26.7769C110.811 26.6628 110.882 26.5564 111.024 26.4566C111.194 26.335 111.448 26.221 111.785 26.1136C112.123 26.0071 112.4 25.9529 112.618 25.9529C112.677 25.9529 112.715 25.971 112.733 26.0062C112.822 26.1849 112.867 26.315 112.867 26.3957C112.867 26.5498 112.838 26.6514 112.78 26.6999C112.728 26.7246 112.506 26.7759 112.109 26.8538C112.033 26.9109 111.991 26.9394 111.983 26.9394C111.978 26.9394 111.965 26.9337 111.945 26.9233C111.921 26.9127 111.907 26.9071 111.903 26.9071C111.822 26.9071 111.727 26.9556 111.619 27.0534C111.64 27.1237 111.673 27.1817 111.721 27.2283H111.722Z" fill="white"/>
</g>
<defs>
<clipPath id="clip0_1_1884">
<rect width="116" height="32" fill="white"/>
</clipPath>
</defs>
</svg>
